<svg width="396" height="116.64073929215435" viewBox="0 0 251 73.93137768265339" class="looka-1j8o68f" xmlns="http://www.w3.org/2000/svg">
    <defs></defs>
    <g transform="matrix(0.8999997973442078,0,0,0.8999997973442078,-4.499975681311117,-8.034297997971091)" fill="#ea2088">
        <g>
            <polygon points="93.146,37.79 38.483,37.79 35.289,37.79 35.289,44.459 39.118,44.459 43.557,91.073 47.021,91.073 44.119,44.459 53.667,44.459 53.667,91.073 60.37,91.073 60.37,44.459 69.919,44.459 69.919,91.073 76.622,91.073 76.622,44.459 86.17,44.459 83.268,91.073 88.072,91.073 92.511,44.459 95,44.459 95,37.79"></polygon>
            <path d="M12.502,21.44c-0.846-0.182-1.459-2.974-3.863-1.325c-1.719,1.179-0.319,2.73-1.457,3.423c-1.425,0.868-2.611,2.231-2.032,3.985c0.128,0.387,0.37,0.721,0.744,0.899c0.48,0.229,1,0.116,1.498,0.26c0.306,0.088,0.646,0.26,0.733,0.566c0.167,0.59,0.642,1.255,0.845,1.463c0.557,0.572,1.266,0.982,2.06,1.108c0.869,0.138,1.753-0.061,2.549-0.41c2.079-0.909,0.482-3.515,1.78-4.28c1.837-1.083,2.111-2.208,1.398-3.838C16.064,21.71,14.068,21.778,12.502,21.44z"></path>
            <path d="M90.833,34.122c1.034-1.472,1.643-3.265,1.643-5.2c0-5.006-4.058-9.063-9.063-9.063c-1.859,0-3.586,0.56-5.024,1.52c-1.079-0.946-2.492-1.52-4.04-1.52c-0.222,0-0.441,0.012-0.656,0.035c-0.721-4.069-4.272-7.16-8.548-7.16c-3.361,0-6.274,1.91-7.717,4.703c-0.481-0.083-0.976-0.128-1.481-0.128c-3.766,0-6.971,2.397-8.174,5.749c-0.778-0.275-1.615-0.426-2.488-0.426c-4.126,0-7.471,3.345-7.471,7.471c0,1.48,0.432,2.859,1.175,4.02H90.833z"></path>
            <path d="M48.961,14.587c-2.103-1.715-4.457-3.071-6.996-4.028l-1.075,2.85c2.23,0.841,4.298,2.032,6.146,3.538L48.961,14.587z"></path>
            <path d="M35.676,9.068c-0.881-0.093-1.775-0.141-2.658-0.141c-1.813,0-3.63,0.199-5.401,0.59l0.657,2.975c1.555-0.343,3.151-0.518,4.744-0.518c0.776,0,1.562,0.042,2.337,0.124L35.676,9.068z"></path>
            <path d="M15.038,16.493l2.174,2.134c1.67-1.701,3.593-3.116,5.716-4.207l-1.392-2.709C19.122,12.95,16.936,14.559,15.038,16.493z"></path>
        </g>
    </g>
    <g transform="matrix(3.6485695838928223,0,0,3.6485695838928223,98.15411635628334,-8.242840368126792)" fill="currentColor">
        <path d="M6.14 8.22 q-0.82 0.34 -1.34 0.96 q-1.12 1.24 -1.12 3.32 t1.12 3.34 q1.16 1.3 3.44 1.3 q1.2 0 2.11 -0.61 t1.35 -1.63 q0.08 -0.2 0.25 -0.31 t0.39 -0.11 l1.58 0 q0.16 0 0.32 0.07 t0.24 0.21 q0.22 0.32 0.1 0.64 q-0.74 2.1 -2.44 3.3 q-1.82 1.3 -4.24 1.3 q-3.22 0 -5.24 -2.22 q-1.88 -2.12 -1.88 -5.28 t1.88 -5.28 q2.02 -2.22 5.24 -2.22 q2.42 0 4.24 1.3 q1.68 1.2 2.44 3.3 q0.12 0.34 -0.1 0.64 q-0.08 0.14 -0.24 0.21 t-0.32 0.07 l-1.58 0 q-0.22 0 -0.39 -0.11 t-0.25 -0.31 q-0.44 -1.02 -1.35 -1.63 t-2.11 -0.61 q-1.28 0 -2.1 0.36 z M27.836 5 q0.28 0 0.49 0.21 t0.21 0.49 l0 7.56 q0 2.92 -1.78 4.75 t-4.57 1.83 t-4.57 -1.83 t-1.78 -4.75 l0 -7.56 q0 -0.28 0.21 -0.49 t0.49 -0.21 l1.5 0 q0.28 0 0.49 0.21 t0.21 0.49 l0 7.6 q0 1.86 1.06 2.84 q0.9 0.84 2.38 0.84 t2.4 -0.84 q1.06 -1 1.06 -2.84 l0 -7.6 q0 -0.28 0.2 -0.49 t0.48 -0.21 l1.52 0 z M41.192 5 q0.3 0 0.5 0.21 t0.2 0.49 l0 1.44 q0 0.28 -0.2 0.49 t-0.5 0.21 l-7.56 0 l0 3.06 l6.68 0 q0.3 0 0.5 0.21 t0.2 0.49 l0 1.46 q0 0.28 -0.2 0.49 t-0.5 0.21 l-6.68 0 l0 3.08 l7.56 0 q0.3 0 0.5 0.21 t0.2 0.49 l0 1.44 q0 0.28 -0.2 0.49 t-0.5 0.21 l-9.76 0 q-0.28 0 -0.49 -0.21 t-0.21 -0.49 l0 -13.28 q0 -0.28 0.21 -0.49 t0.49 -0.21 l9.76 0 z"></path>
    </g>
</svg>
